<?xml version="1.0" standalone="no"?>
<!DOCTYPE svg PUBLIC "-//W3C//DTD SVG 20010904//EN"
 "http://www.w3.org/TR/2001/REC-SVG-20010904/DTD/svg10.dtd">
<svg version="1.0" xmlns="http://www.w3.org/2000/svg"
 width="512.000000pt" height="512.000000pt" viewBox="0 0 512.000000 512.000000"
 preserveAspectRatio="xMidYMid meet">
<metadata>
Created by potrace 1.11, written by Peter Selinger 2001-2013
</metadata>
<g transform="translate(0.000000,512.000000) scale(0.100000,-0.100000)"
fill="#000000" stroke="none">
<path d="M81 5101 c-18 -10 -44 -35 -57 -57 l-24 -39 0 -2437 c0 -2700 -5
-2492 64 -2541 l31 -22 2453 -3 c2266 -2 2455 -1 2485 14 42 22 74 60 81 97 3
16 6 1123 6 2459 0 2385 0 2429 -19 2467 -11 21 -32 47 -48 57 -27 19 -88 19
-2483 21 -2350 2 -2456 1 -2489 -16z"/>
</g>
</svg>
